<svg xmlns="http://www.w3.org/2000/svg" version="1.1" xmlns:xlink="http://www.w3.org/1999/xlink" xmlns:svgjs="http://svgjs.dev/svgjs" width="1440" height="560" preserveAspectRatio="none" viewBox="0 0 1440 560"><g mask="url(&quot;#SvgjsMask1009&quot;)" fill="none"><rect width="1440" height="560" x="0" y="0" fill="rgba(16, 23, 32, 1)"></rect><path d="M0 96.92C55.06 50.56 68.95 57.24 140 22.11C166.95 8.78 166.77 4.62 196 0C236.77 -6.44 238 0 280 0C350 0 350 0 420 0C490 0 490 0 560 0C630 0 630 0 700 0C770 0 770 0 840 0C910 0 910 0 980 0C1050 0 1050 0 1120 0C1190 0 1190 0 1260 0C1330 0 1330 0 1400 0C1470 0 1505 -35 1540 0C1575 35 1540 70 1540 140C1540 210 1540 210 1540 280C1540 350 1540 350 1540 420C1540 490 1575 525 1540 560C1505 595 1470 560 1400 560C1330 560 1330 560 1260 560C1207.5 560 1155 582.7 1155 560C1155 526.87 1205.29 501.68 1260 448.35C1277.1 431.68 1291.71 441.36 1298.62 420C1318.93 357.18 1325.82 345.33 1314.44 280C1306.51 234.49 1292.57 234.28 1260 198.33C1229.15 164.28 1226.69 164.34 1187.59 140C1156.69 120.77 1155.32 120.56 1120 111.18C1051.52 92.99 1037.43 74.7 980 84.85C955.91 89.11 956.96 112.73 956.96 140C956.96 164.25 958.95 173.83 980 187.89C1040.47 228.28 1055.09 212.08 1120 248.89C1136.29 258.13 1142.4 263.45 1142.4 280C1142.4 302.34 1141.67 317.14 1120 326.67C1060.47 352.85 1039.63 322.28 980 351.43C944.18 368.94 934.35 380.81 929.09 420C920.35 485.1 976.89 520.88 952 560C932.35 590.88 896 560 840 560C770 560 770 560 700 560C630 560 630 560 560 560C490 560 490 560 420 560C350 560 350 560 280 560C227.5 560 222.29 572.26 175 560C152.29 554.11 159.46 523.7 140 523.7C114.74 523.7 115.89 552.13 85.56 560C45.89 570.28 16.68 586.1 0 560C-26.1 519.15 -1.62 492.62 0 426.09C0.08 422.62 3.41 422.71 3.41 420C3.41 418.32 0.05 419.46 0 417.31C-1.65 349.46 0 348.65 0 280C0 210 0 210 0 140C0 118.46 -14.94 109.5 0 96.92" stroke="rgba(249, 115, 22, 1)" stroke-width="2"></path><path d="M280 382.44C250.82 389.11 230.32 399.7 230.32 420C230.32 442.55 248.64 460.64 280 468.13C343.48 483.29 356.18 481.68 420 465.29C449.87 457.62 467.38 442.39 467.38 420C467.38 398.06 449.45 382.52 420 376.62C355.76 363.74 345.66 367.42 280 382.44" stroke="rgba(249, 115, 22, 1)" stroke-width="2"></path><path d="M105 140C123.37 128.41 119.27 117.53 140 114.21C206.77 103.53 229.4 142.45 280 112C324.29 85.35 289.46 32.26 329.78 0C359.46 -23.74 374.89 0 420 0C490 0 490 0 560 0C609.74 0 628.48 -26.22 659.47 0C698.48 33.01 663.12 117.78 700 118.46C753.39 119.44 782.65 -2.48 840 3.33C888.98 8.29 912.66 73.52 912.66 140C912.66 196.01 879.23 196.61 840 248.3C826.1 266.61 806.4 261.71 806.4 280C806.4 306.52 825.11 308 840 337.93C859.94 378 876.06 378.13 876.06 420C876.06 473.26 862.29 476.34 840 528.18C832.19 546.34 833.81 555.92 815.86 560C763.81 571.83 757.93 560 700 560C630 560 630 560 560 560C490 560 490 560 420 560C350 560 350 560 280 560C258.75 560 237.5 567.98 237.5 560C237.5 549.39 253.79 529.02 280 522.81C345.04 507.4 359.67 542.47 420 516.76C480.29 491.07 475.43 472.27 521.23 420C545.43 392.39 539.99 388.1 560 357C585.04 318.1 597.48 322.95 611.33 280C632.48 214.45 647.11 189.88 630 140C621.44 115.05 594.82 136.29 560 130.34C489.82 118.34 488.73 101.33 420 104.1C368.73 106.16 320 120.9 320 140C320 159.44 379.5 148.41 420 181.18C466.02 218.41 493.04 237.22 493.04 280C493.04 310.29 460.73 315.89 420 327.32C354.21 345.77 346.06 352.32 280 339.76C221.62 328.66 212.08 321.58 171.11 280C142.08 250.53 157.2 197.65 140 197.65C122.2 197.65 101.11 240.44 101.11 280C101.11 309.62 124.38 305.94 140 336C160.76 375.94 173.87 380.85 173.87 420C173.87 442.29 158.93 458.89 140 458.89C116.39 458.89 114.16 439.74 88.78 420C44.16 385.3 27.42 393.23 0 350C-16.97 323.23 0 315 0 280C0 241.27 -20.36 229.7 0 202.55C32.14 159.7 53.37 172.58 105 140" stroke="rgba(249, 115, 22, 1)" stroke-width="2"></path><path d="M1120 59.71C1056.69 45.64 1000.59 15.76 1000.59 0C1000.59 -14.1 1060.3 0 1120 0C1190 0 1190 0 1260 0C1330 0 1330 0 1400 0C1470 0 1505 -35 1540 0C1575 35 1540 70 1540 140C1540 210 1540 210 1540 280C1540 350 1540 350 1540 420C1540 490 1575 525 1540 560C1505 595 1470 560 1400 560C1330 560 1330 560 1260 560C1228.34 560 1196.67 573.69 1196.67 560C1196.67 540.02 1225.14 522.73 1260 492.66C1306.29 452.73 1331.26 469.41 1358.97 420C1390.89 363.08 1395.17 344.38 1379.26 280C1360.58 204.38 1328.84 212.8 1289.79 140C1269.21 101.63 1292.67 73.1 1260 57.65C1207.77 32.95 1186.4 74.47 1120 59.71" stroke="rgba(249, 115, 22, 1)" stroke-width="2"></path><path d="M420 14.36C410.9 13.78 407.56 4.34 407.56 0C407.56 -2.84 413.78 0 420 0C490 0 490 0 560 0C563.68 0 567.37 -1.82 567.37 0C567.37 3.01 565.88 9.09 560 9.66C492.2 16.27 487.12 18.61 420 14.36" stroke="rgba(249, 115, 22, 1)" stroke-width="2"></path><path d="M782.56 140C782.56 114.97 815.77 86.67 840 86.67C858.67 86.67 868.35 114.06 868.35 140C868.35 161.86 857.86 182.26 840 182.26C814.97 182.26 782.56 162.77 782.56 140" stroke="rgba(249, 115, 22, 1)" stroke-width="2"></path><path d="M1120 8.24C1111.45 8.24 1103.53 2.17 1103.53 0C1103.53 -1.95 1111.76 0 1120 0C1132.72 0 1145.45 -2.01 1145.45 0C1145.45 2.11 1132.41 8.24 1120 8.24" stroke="rgba(249, 115, 22, 1)" stroke-width="2"></path><path d="M1364.26 140C1364.26 104.35 1367.86 77.2 1400 66.96C1455.73 49.2 1489.9 57.86 1540 84C1559.9 94.38 1540 112 1540 140C1540 167.1 1559.53 186.11 1540 194.19C1489.53 215.07 1459.13 216.16 1400 197.93C1371.26 189.07 1364.26 169.84 1364.26 140" stroke="rgba(249, 115, 22, 1)" stroke-width="2"></path><path d="M0 277.02C1.21 277.02 3.89 278.56 3.89 280C3.89 281.39 1.24 282.69 0 282.69C-0.71 282.69 0 281.35 0 280C0 278.51 -0.74 277.02 0 277.02" stroke="rgba(249, 115, 22, 1)" stroke-width="2"></path><path d="M248.89 280C248.89 261.11 257.13 234.84 280 234.84C336.32 234.84 407.27 264.05 407.27 280C407.27 295.17 342.04 297.07 280 297.07C262.85 297.07 248.89 292.22 248.89 280" stroke="rgba(249, 115, 22, 1)" stroke-width="2"></path><path d="M669.67 280C669.67 253.17 683.78 229.44 700 229.44C717.14 229.44 736.4 252.65 736.4 280C736.4 321.27 716.88 366.67 700 366.67C683.51 366.67 669.67 321.79 669.67 280" stroke="rgba(249, 115, 22, 1)" stroke-width="2"></path><path d="M440.74 560C440.74 529.22 498.81 452.67 560 452.67C625.53 452.67 694.17 529.87 694.17 560C694.17 583.53 627.09 560 560 560C500.37 560 440.74 582.88 440.74 560" stroke="rgba(249, 115, 22, 1)" stroke-width="2"></path><path d="M1238.33 560C1238.33 553.16 1245.88 536.96 1260 536.96C1300.05 536.96 1346.67 554.14 1346.67 560C1346.67 565.66 1303.34 560 1260 560C1249.16 560 1238.33 564.68 1238.33 560" stroke="rgba(249, 115, 22, 1)" stroke-width="2"></path></g><defs><mask id="SvgjsMask1009"><rect width="1440" height="560" fill="#ffffff"></rect></mask></defs></svg>